# xmcd CD database file
#
# Track frame offsets:
#	150
#	16225
#	30013
#	46820
#	63978
#	76035
#	94515
#	110490
#	130753
#	144793
#	161290
#	180723
#	198848
#	213673
#	226081
#	241551
#	257506
#	264304
#	288979
#
# Disc length: 4167 seconds
#
# Revision: 0
# Processed by: cddbd v1.4b41PL3 Copyright (c) Steve Scherf et al.
# Submitted via: Feurio! 1.61 - http://www.feurio.com
#
DISCID=dc104513
DTITLE=Shania Twain - Millenium Best CD2
DYEAR=1900
DGENRE=
TTITLE0=For The Love Of Him
TTITLE1=Wild and Wicked
TTITLE2=Send It With Love
TTITLE3=Once Over
TTITLE4=Bite My Lips
TTITLE5=I Won't Leave You Lonely
TTITLE6=Honey, I'm Home
TTITLE7=I'm Outta Here
TTITLE8=No One Needs To Know
TTITLE9=Luv Eyes
TTITLE10=I Lost My Heart When I Found You
TTITLE11=Hate To Love
TTITLE12=There Goes The Neighbourhood
TTITLE13=God Ain't Gonna Getcha For That
TTITLE14=I'm Holding On To Love
TTITLE15=Love Gets Me Every Time
TTITLE16=God Bless The Child
TTITLE17=You've Got A Friend
TTITLE18=For The Love Of Him
EXTD=
EXTT0=
EXTT1=
EXTT2=
EXTT3=
EXTT4=
EXTT5=
EXTT6=
EXTT7=
EXTT8=
EXTT9=
EXTT10=
EXTT11=
EXTT12=
EXTT13=
EXTT14=
EXTT15=
EXTT16=
EXTT17=
EXTT18=
PLAYORDER=
